<?xml version="1.0" encoding="utf-8"?>
<!-- Generator: Adobe Illustrator 16.0.0, SVG Export Plug-In . SVG Version: 6.00 Build 0)  -->
<!DOCTYPE svg PUBLIC "-//W3C//DTD SVG 1.1//EN" "http://www.w3.org/Graphics/SVG/1.1/DTD/svg11.dtd">
<svg version="1.1" id="Layer_1" xmlns="http://www.w3.org/2000/svg" xmlns:xlink="http://www.w3.org/1999/xlink" x="0px" y="0px"
	 width="566.93px" height="566.93px" viewBox="0 0 566.93 566.93" enable-background="new 0 0 566.93 566.93" xml:space="preserve">
<g>
	<path fill-rule="evenodd" clip-rule="evenodd" fill="#D0D0D0" d="M7.168,309.274c0.851-3.43,1.575-6.9,2.575-10.289
		c6.209-21.016,20.446-34.763,41.095-40.041c25.957-6.635,40.129-23.735,48.454-47.605c7.237-20.75,14.579-41.463,21.973-62.158
		c9.853-27.579,35.227-45.33,64.683-44.984c59.779,0.703,119.557,1.577,179.335,2.375c2.123,0.028,4.251,0.004,6.863,0.004
		c0.164-2.125,0.261-4.019,0.462-5.903c0.958-9.017,6.968-14.583,16.057-14.73c5.01-0.083,10.025-0.017,15.033,0.132
		c5.43,0.161,9.941,2.146,13.617,6.406c1.361,1.578,3.848,2.663,5.975,2.992c3.324,0.515,6.788,0.08,10.18,0.26
		c4.43,0.235,7.009,2.542,6.927,7.15c-0.083,4.559-2.471,6.873-7.107,6.821c-4.106-0.046-8.214-0.009-12.931-0.009
		c-0.156,2.918-0.304,5.681-0.508,9.478c4.445,0,8.466-0.077,12.481,0.019c5.557,0.133,7.913,2.402,7.727,7.296
		c-0.192,5.023-3.153,6.831-7.811,6.681c-1.967-0.064-3.942,0.063-5.905-0.06c-4.54-0.287-8.072,0.245-11.568,4.408
		c-5.811,6.909-31.905,6.766-37.553-0.257c-3.404-4.233-4.491-10.33-6.621-15.589c0.452-0.318,0.903-0.636,1.355-0.955
		c-1.557-0.113-3.112-0.307-4.673-0.327c-60.133-0.797-120.281-1.168-180.402-2.569c-22.913-0.535-46.176,15.154-53.241,37.281
		c-7.115,22.285-15.236,44.264-23.454,66.175c-6.757,18.017-17.334,33.433-34.739,42.785c-6.216,3.341-13.249,5.229-20.007,7.482
		c-15.851,5.284-27.978,14.488-32.392,31.344c-2.903,11.087-3.38,22.222,1.942,32.99c3.607,7.296,9.413,11.893,17.708,15.453
		c0-6.055-0.049-11.476,0.009-16.894c0.205-19.149,13.342-38.028,31.244-44.853c1.986-0.755,4.135-1.647,6.182-1.589
		c14.705,0.421,24.053-7.983,31.313-19.268c3.545-5.51,6.431-11.584,8.717-17.737c6.972-18.754,13.521-37.665,20.208-56.524
		c8.111-22.876,26.407-35.884,50.564-35.594c57.631,0.69,115.269,1.133,172.887,2.427c23.458,0.526,41.161,12.245,52.203,33.033
		c8.882,16.729,17.315,33.707,25.556,50.763c13.132,27.177,33.884,44.05,63.966,49.227c10.938,1.881,21.61,5.012,30.96,11.434
		c13.862,9.523,19.833,23.436,20.184,39.523c0.43,19.67,0.058,39.381-0.742,59.044c-0.721,17.654-14.823,31.324-32.407,31.645
		c-21.625,0.399-43.262,0.098-65.329,0.098c0.431-21.323-6.249-38.663-21.775-51.991c-11.283-9.688-24.579-14.57-39.428-14.517
		c-17.278,0.063-32.093,6.407-44.134,18.86c-10.589,10.953-13.724,19.178-17.481,44.281c-34.162,0-68.242,0-102.342,0
		c1.218-41.575-30.648-66.414-61.537-66.336c-28.292,0.073-60.52,21.419-61.331,64.713c-14.049-0.661-28.306-0.008-42.064-2.318
		c-16.437-2.757-26.17-17.212-26.193-35.132c-0.01-8.054,0.464-16.11,0.311-24.158c-0.03-1.595-1.576-4.049-3.002-4.596
		c-17.974-6.879-28.555-19.597-31.419-38.678c-0.044-0.298-0.424-0.543-0.648-0.813C7.168,320.015,7.168,314.645,7.168,309.274z
		 M266.658,280.319c54.172,0.758,108.361,1.514,162.553,2.271c-8.926-9.334-14.138-20.11-19.442-30.856
		c-5.855-11.852-11.796-23.661-17.851-35.413c-9.824-19.073-25.681-28.764-47-29.242c-23.965-0.536-47.938-0.718-71.908-1.048
		c-1.885-0.026-3.768-0.004-6.353-0.004C266.658,217.743,266.658,248.657,266.658,280.319z M232.275,186.076
		c-0.02-0.006-0.668-0.381-1.324-0.395c-10.908-0.235-21.843-0.988-32.721-0.498c-18.462,0.834-32.1,9.833-38.854,27.179
		c-8.46,21.728-15.985,43.819-24.184,66.501c31.738,0,63.973,0,97.083,0C232.275,248.271,232.275,217.366,232.275,186.076z"/>
	<path fill-rule="evenodd" clip-rule="evenodd" fill="#D0D0D0" d="M396.656,380.256c27.122-0.69,50.649,22.229,50.599,50.353
		c-0.052,27.433-20.944,49.595-49.988,50.401c-27.001,0.748-49.838-21.79-50.676-49.793
		C345.777,404.027,368.425,380.977,396.656,380.256z M418.699,430.381c-0.112-12.179-9.808-21.651-21.999-21.489
		c-12.207,0.162-21.657,9.839-21.506,22.02c0.149,12.191,9.844,21.649,22.032,21.498
		C409.441,452.258,418.811,442.647,418.699,430.381z"/>
	<path fill-rule="evenodd" clip-rule="evenodd" fill="#D0D0D0" d="M221.981,426.772c0.707,27.525-21.626,50.445-49.804,51.106
		c-27.354,0.642-50.426-21.54-50.729-50.125c-0.282-26.617,19.952-50.274,50.295-50.476
		C199.523,377.095,221.297,398.917,221.981,426.772z M149.914,427.653c0.063,12.139,9.789,21.771,21.9,21.692
		c12.062-0.078,21.932-10.017,21.775-21.922c-0.16-12.138-9.868-21.682-22.013-21.637
		C159.42,405.833,149.849,415.491,149.914,427.653z"/>
</g>
</svg>
