<?xml version="1.0" encoding="utf-8"?>
<!-- Generator: Adobe Illustrator 16.0.0, SVG Export Plug-In . SVG Version: 6.00 Build 0)  -->
<!DOCTYPE svg PUBLIC "-//W3C//DTD SVG 1.1//EN" "http://www.w3.org/Graphics/SVG/1.1/DTD/svg11.dtd">
<svg version="1.1" id="Layer_1" xmlns="http://www.w3.org/2000/svg" xmlns:xlink="http://www.w3.org/1999/xlink" x="0px" y="0px"
	 width="566.93px" height="566.93px" viewBox="0 0 566.93 566.93" enable-background="new 0 0 566.93 566.93" xml:space="preserve">
<g>
	<path fill-rule="evenodd" clip-rule="evenodd" fill="#D0D0D0" d="M58.927,374.259c4.468-7.413,10.636-11.753,19.68-11.599
		c2.187,0.033,4.519-1.046,6.575-2.038c5.019-2.428,9.95-3.169,15.663-2.283c20.662,3.218,41.433,5.713,62.126,8.729
		c14.037,2.042,27.987,4.677,42.028,6.686c6.64,0.954,13.396,1.113,20.108,1.532c1.36,0.086,2.75-0.261,4.164-1.388
		c-2.861-0.481-5.756-0.813-8.577-1.464c-8.795-2.038-16.963-5.521-24.039-11.224c-4.773-3.839-5.067-5.626,0.029-8.911
		c4.008-2.582,8.962-4.846,13.608-5.087c18.625-0.959,37.24,0.087,55.248,5.366c15.609,4.576,30.551,3.227,45.494-2.602
		c12.64-4.928,25.685-7.812,39.441-6.763c10.163,0.78,19.527,3.844,27.986,9.345c23.141,15.058,45.25,31.426,63.188,52.697
		c11.041,13.083,21.436,26.715,32.592,39.696c10.02,11.652,20.684,22.751,31.05,34.104c0.935,1.016,1.763,2.134,3.3,4.003
		c-2.235,0-3.487,0-4.735,0c-34.855,0.053-69.711,0.067-104.566,0.231c-3.015,0.019-4.773-0.93-6.324-3.444
		c-9.711-15.752-22.751-27.765-40.02-34.841c-12.798-5.241-26.233-6.859-39.961-6.797c-21.378,0.101-42.758,0.11-64.138,0.163
		c-15.169,0.034-29.225-3.771-43.191-9.898c-11.654-5.115-24.446-7.688-36.804-11.137c-24.354-6.802-48.839-13.141-73.097-20.255
		c-11.038-3.242-21.736-7.703-32.418-12.038c-1.903-0.771-2.962-3.622-4.41-5.511C58.927,377.775,58.927,376.018,58.927,374.259z"/>
	<path fill-rule="evenodd" clip-rule="evenodd" fill="#D0D0D0" d="M180.934,359.341c-6.229-0.828-13.29-1.763-20.388-2.697
		c9.063-31.108,40.412-72.327,95.132-83.834c-1.989-4.552-3.964-9.073-5.937-13.594c0.458-0.238,0.913-0.477,1.37-0.718
		c2.731,3.721,5.35,7.534,8.261,11.103c0.843,1.036,2.555,1.99,3.827,1.937c6.27-0.253,12.524-0.857,18.986-1.354
		c2.77-8.122,2.223-17.512,7.645-24.923c0.438,0.062,0.877,0.127,1.32,0.19c-0.723,8.418-1.445,16.835-2.173,25.299
		c4.118,1.524,6.95,0.889,9.272-3.062c2.477-4.212,5.689-7.993,8.579-11.962c0.516,0.277,1.036,0.554,1.556,0.831
		c-2.389,5.147-4.778,10.294-7.283,15.689c27.447,4.935,51.007,17.346,70.448,37.409c11.218,11.58,22.495,29.359,25.641,40.568
		c-3.536-2.173-6.657-4.123-9.808-6.036c-19.003-11.526-39.422-13.024-60.559-8.102c-7.659,1.787-15.154,4.393-22.605,6.965
		c-10.034,3.459-20.065,3.671-30.2,0.78c-20.07-5.708-40.621-6.897-61.317-6.416c-9.448,0.212-17.801,3.714-24.234,10.708
		C185.592,351.248,183.646,355.228,180.934,359.341z"/>
	<path fill-rule="evenodd" clip-rule="evenodd" fill="#D0D0D0" d="M291.44,242.636c0.626-34.065-2.207-67.261-23.97-95.746
		c19.008,31.462,19.249,65.559,14.641,101.825c-7.468-8.097-14.193-15.171-20.677-22.454
		c-17.789-19.983-30.515-42.673-34.073-69.456c-1.625-12.242-1.103-24.788-1.317-37.199c-0.186-10.925-0.039-21.853-0.039-32.861
		c8.787-3.721,17.384-2.733,25.939-0.219c17.088,5.024,30.233,15.665,41.065,29.41c25.641,32.534,28.949,78.866,8.149,114.677
		c-2.543,4.374-5.751,8.357-8.651,12.524C292.153,242.971,291.795,242.805,291.44,242.636z"/>
	<path fill-rule="evenodd" clip-rule="evenodd" fill="#D0D0D0" d="M310.529,261.853c14.928-22.223,31.479-40.86,56.508-49.937
		c-25.197,5.894-42.745,22.69-59.19,42.605c-0.564-8.318,1.175-15.327,3.305-22.175c10.905-35.06,50.27-58.591,86.155-51.392
		c9.773,1.96,18.699,5.91,24.634,14.612c0.391,0.578,0.646,1.25,0.611,1.183c-6.362,7.897-12.548,15.265-18.396,22.888
		c-18.849,24.562-44.075,37.228-74.499,40.352C323.694,260.601,317.73,261.152,310.529,261.853z"/>
	<path fill-rule="evenodd" clip-rule="evenodd" fill="#D0D0D0" d="M250.553,256.225c-16.79-18.892-34.453-35.771-59.867-41.69
		c25.185,9.021,41.806,27.73,57.003,50.274c-10.234-1.205-19.326-1.956-28.307-3.394c-27.594-4.425-49.692-18.011-66.51-40.359
		c-5.429-7.213-11.351-14.056-17.392-21.488c2.77-5.802,8.261-9.626,14.504-12.28c19.034-8.09,37.936-6.217,56.036,2.572
		c25.145,12.213,40.39,32.153,44.121,60.27C250.408,252.145,250.423,254.191,250.553,256.225z"/>
</g>
</svg>
