<?xml version="1.0" encoding="utf-8"?>
<!-- Generator: Adobe Illustrator 16.0.0, SVG Export Plug-In . SVG Version: 6.00 Build 0)  -->
<!DOCTYPE svg PUBLIC "-//W3C//DTD SVG 1.1//EN" "http://www.w3.org/Graphics/SVG/1.1/DTD/svg11.dtd">
<svg version="1.1" id="Layer_1" xmlns="http://www.w3.org/2000/svg" xmlns:xlink="http://www.w3.org/1999/xlink" x="0px" y="0px"
	 width="566.93px" height="566.93px" viewBox="0 0 566.93 566.93" enable-background="new 0 0 566.93 566.93" xml:space="preserve">
<g>
	<path fill-rule="evenodd" clip-rule="evenodd" fill="#D0D0D0" d="M165.286,81.459c3.303,0.73,6.622,1.399,9.909,2.203
		c31.322,7.637,53.725,33.351,57.441,65.243c1.279,10.97,0.34,21.498-3.277,31.839c-0.711,2.032-0.279,3.295,1.23,4.801
		c50.479,50.403,100.917,100.847,151.298,151.346c1.69,1.696,3.109,1.822,5.167,1.108c41.152-14.243,91.757,12.675,98.221,61.992
		c0.101,0.748,0.479,1.459,0.726,2.184c0,4.742,0,9.481,0,14.221c-2.097,7.566-4.177,15.136-6.305,22.693
		c-0.243,0.868-0.738,1.666-1.312,2.917c-1.192-1.119-2.239-2.055-3.23-3.043c-15.272-15.256-30.507-30.554-45.818-45.771
		c-10.545-10.476-24.499-11.491-35.221-2.71c-10.077,8.25-12.034,23.197-4.339,33.739c1.467,2.008,3.163,3.875,4.924,5.641
		c14.867,14.918,29.765,29.807,44.68,44.674c1.002,0.999,2.245,1.758,3.829,2.979c-11.67,5.735-22.971,8.351-34.851,7.808
		c-36.791-1.677-64.523-25.337-72.126-61.447c-2.626-12.474-2.164-24.86,2.11-36.95c0.868-2.455,0.495-3.976-1.372-5.84
		c-50.225-50.118-100.386-100.295-150.501-150.52c-1.814-1.819-3.285-2.337-5.814-1.478c-39.542,13.434-87.754-10.612-97.277-57.301
		c-3.103-15.214-0.466-34.674,6.403-46.658c1.055,1.002,2.084,1.935,3.065,2.914c15.273,15.256,30.502,30.56,45.821,45.768
		c10.582,10.506,24.502,11.502,35.209,2.682c10.007-8.247,11.933-23.299,4.252-33.79c-1.393-1.901-2.982-3.684-4.648-5.355
		c-14.862-14.923-29.755-29.817-44.673-44.685c-1.015-1.011-2.318-1.733-4.013-2.973c9.113-5.156,18.134-6.542,27.062-8.23
		C156.333,81.459,160.81,81.459,165.286,81.459z"/>
	<path fill-rule="evenodd" clip-rule="evenodd" fill="#D0D0D0" d="M81.552,444.044c1.716-12.46,9.327-21.213,17.875-29.697
		c38.09-37.821,75.971-75.85,113.911-113.821c1.111-1.111,2.031-2.413,2.819-3.359c18.087,18.156,35.772,35.909,54.284,54.49
		c-0.637,0.42-2.14,1.084-3.225,2.17c-38.077,38.017-76.192,76-114.1,114.188c-8.486,8.547-17.242,16.16-29.696,17.896
		c-2.632,0-5.265,0-7.899,0c-0.475-0.193-0.934-0.496-1.426-0.566c-9.908-1.43-17.871-6.155-24.225-13.873
		c-4.719-5.729-6.793-12.487-8.316-19.527C81.552,449.31,81.552,446.675,81.552,444.044z"/>
	<path fill-rule="evenodd" clip-rule="evenodd" fill="#D0D0D0" d="M486.002,108.318c-8.754,16.776-17.558,33.527-26.204,50.359
		c-1.456,2.836-3.314,4.762-6.176,6.211c-15.474,7.853-30.884,15.839-46.244,23.912c-2.511,1.318-4.938,3.037-6.947,5.03
		c-19.892,19.763-39.694,39.618-59.501,59.468c-1.011,1.013-1.823,2.228-2.408,2.951c-9.198-9.148-17.926-17.834-26.993-26.848
		c0.474-0.504,1.396-1.548,2.377-2.53c19.998-20.032,40.023-40.036,59.966-60.12c1.816-1.828,3.404-4.02,4.602-6.301
		c8.309-15.833,16.432-31.763,24.785-47.568c0.96-1.82,2.74-3.541,4.565-4.51c17.054-9.07,34.199-17.966,51.319-26.912
		c0.263,0,0.526,0,0.792,0c8.689,8.689,17.378,17.38,26.067,26.07C486.002,107.792,486.002,108.055,486.002,108.318z"/>
	<path fill-rule="evenodd" clip-rule="evenodd" fill="#D0D0D0" d="M486.002,107.529c-8.689-8.689-17.378-17.381-26.067-26.07
		c8.625,0,17.246,0,26.067,0C486.002,90.148,486.002,98.837,486.002,107.529z"/>
	<path fill-rule="evenodd" clip-rule="evenodd" fill="#D0D0D0" d="M81.552,451.943c1.523,7.04,3.597,13.798,8.316,19.527
		c6.354,7.718,14.317,12.443,24.225,13.873c0.493,0.07,0.952,0.373,1.426,0.566c-11.322,0-22.645,0-33.968,0
		C81.552,474.587,81.552,463.267,81.552,451.943z"/>
</g>
</svg>
